<svg xmlns="http://www.w3.org/2000/svg" xmlns:xlink="http://www.w3.org/1999/xlink" width="986" height="366" viewBox="0 0 986 366">
  <defs>
    <clipPath id="clip-best_rehabs-logo">
      <rect width="986" height="366"/>
    </clipPath>
  </defs>
  <g id="best_rehabs-logo" data-name="best rehabs-logo" clip-path="url(#clip-best_rehabs-logo)">
    <rect width="986" height="366" fill="none"/>
    <g id="Group_2" data-name="Group 2" transform="translate(-91.199 -398.254)">
      <g id="Group_1" data-name="Group 1" transform="translate(410.653 521.783)">
        <path id="Path_1" data-name="Path 1" d="M271.714,579.431V550.609h-11.15v-21h11.15V515.123L300.1,504.731v24.875h20.712v21H300.1v26.8c0,10.572,3.62,14.625,12.6,14.625a43.882,43.882,0,0,0,6.658-.72l3.622,20.854a75.011,75.011,0,0,1-15.5,1.594c-23.75,0-35.775-9.127-35.775-34.329" transform="translate(-260.564 -504.731)" fill="#0d0809"/>
      </g>
      <rect id="Rectangle_1" data-name="Rectangle 1" width="334.82" height="11.47" transform="translate(137.777 660.258)" fill="#0d0809"/>
      <rect id="Rectangle_2" data-name="Rectangle 2" width="334.82" height="11.47" transform="translate(137.777 490.781)" fill="#0d0809"/>
      <path id="Path_2" data-name="Path 2" d="M166.8,601.3v11.007h-28.1V504.731l28.1,10.39v26.217c3.478-8.112,13.036-13.472,23.321-13.472,20.715,0,35.487,16.077,35.487,43.163,0,26.942-14.921,43.307-35.487,43.307-10.136,0-19.843-5.211-23.321-13.034m30.564-30.417c0-12.743-6.663-19.986-15.79-19.986-8.978,0-15.788,7.243-15.788,19.986,0,13.036,6.809,20.277,15.934,20.277s15.643-7.24,15.643-20.277" transform="translate(1.137 17.052)" fill="#0d0809"/>
      <path id="Path_3" data-name="Path 3" d="M182.105,558.224c0-25.49,17.523-43.018,43.16-43.018,28.244,0,44.469,18.974,41.425,48.961H210.2c.147,10.716,6.518,17.232,16.514,17.232,7.094,0,12.019-2.894,13.905-8.545l25.779,2.463c-5.216,16.945-19.121,25.93-40.554,25.93-26.506,0-43.743-16.95-43.743-43.023M241.2,547.941c-.578-8.692-6.52-14.339-15.21-14.339-8.4,0-14.628,5.211-15.354,14.339Z" transform="translate(54.184 29.856)" fill="#0d0809"/>
      <path id="Path_4" data-name="Path 4" d="M223.029,577.263l25.346-2.607c2.171,5.358,7.529,8.836,14.632,8.836,6.8,0,11.005-2.464,11.005-6.52,0-13.9-49.245-4.345-48.525-35.92.438-15.79,15.063-25.779,37.08-25.779,19.121,0,34.618,8.4,37.8,22.737l-25.053,3.042c-1.6-5.069-5.94-8.258-11.736-8.258-6.518,0-10.425,2.465-10.425,6.663,0,13.763,49.245,2.031,49.245,33.749,0,17.239-15.35,27.813-39.393,27.813-22.741,0-36.94-9.849-39.978-23.755" transform="translate(104.208 29.938)" fill="#0d0809"/>
      <path id="Path_5" data-name="Path 5" d="M786.411,614.969c24.017,0,39.351-10.561,39.351-27.777,0-31.684-49.19-19.966-49.19-33.711,0-4.194,3.907-6.654,10.418-6.654,5.787,0,10.127,3.182,11.719,8.247l25.028-3.04c-3.182-14.321-18.663-22.713-37.76-22.713-21.99,0-36.6,9.983-37.038,25.753-.722,31.537,48.467,21.99,48.467,35.878,0,4.051-4.2,6.512-11,6.512-7.089,0-12.441-3.474-14.612-8.825l-25.317,2.6c3.038,13.887,17.214,23.726,39.929,23.726m-90.523-22.715c-9.114,0-15.914-7.234-15.914-20.254,0-12.732,6.8-19.966,15.77-19.966,9.114,0,15.77,7.234,15.77,19.966,0,13.021-6.511,20.254-15.625,20.254m8.392,23.148c20.543,0,35.444-16.348,35.444-43.258,0-27.053-14.756-43.112-35.444-43.112-10.272,0-19.821,5.352-23.292,13.454V503.858H652.918v109.52h28.068v-11c3.471,7.814,13.165,13.021,23.292,13.021M596,592.254c-8.969,0-15.77-7.234-15.77-20.254,0-12.732,6.8-19.966,15.77-19.966s15.77,7.234,15.77,19.966c0,13.021-6.656,20.254-15.77,20.254M587.466,615.4c10.272,0,19.821-5.207,23.292-13.021v11h28.213V530.768H610.758v11.719c-3.471-8.1-12.876-13.454-23.292-13.454-20.688,0-35.3,16.059-35.3,43.112,0,26.91,14.756,43.258,35.3,43.258m-127.954-1.88h28.066V570.7c0-13.165,4.34-18.083,13.312-18.083,9.114,0,13.31,4.34,13.31,17.505v43.4h28.066v-46.3c0-28.935-11.43-38.049-30.671-38.049-13.021,0-20.977,6.509-24.017,13.021v-38.34H459.511Zm-67.191-51.65c.722-9.114,6.945-14.323,15.334-14.323,8.681,0,14.614,5.643,15.192,14.323Zm15.19,53.241c21.412,0,35.3-8.969,40.509-25.9l-25.75-2.46c-1.882,5.643-6.8,8.536-13.89,8.536-9.983,0-16.348-6.509-16.492-17.214h56.423c3.038-29.948-13.167-48.9-41.378-48.9-25.608,0-43.114,17.505-43.114,42.967,0,26.042,17.217,42.969,43.691,42.969m-102.139-1.591h28.066V576.485c0-18.372,9.694-23.437,24.161-20.832l2.6-26.186c-15.625-1.591-24.306,5.787-26.766,12.3V530.768H305.371Z" transform="translate(204.859 15.985)" fill="#0d0809"/>
    </g>
  </g>
</svg>
